<?xml version="1.0" encoding="UTF-8"?>
<svg width="767px" height="313px" viewBox="0 0 767 313" version="1.1" xmlns="http://www.w3.org/2000/svg" xmlns:xlink="http://www.w3.org/1999/xlink">
    <!-- Generator: Sketch 49.2 (51160) - http://www.bohemiancoding.com/sketch -->
    <title>Group</title>
    <desc>Created with Sketch.</desc>
    <defs></defs>
    <g id="Page-1" stroke="none" stroke-width="1" fill="none" fill-rule="evenodd">
        <g id="Search" transform="translate(-115.000000, -214.000000)">
            <g id="Group" transform="translate(117.000000, 216.000000)">
                <path d="M193.187919,232.412943 L189.902014,234.420459 L187.665772,233.089929 C181.448609,244.118537 175.213663,255.136653 169,266.167233 C176.010388,269.759418 183.053778,273.284774 190.084563,276.835135 C190.519574,278.770241 191.791329,280.356994 193.347651,281.293775 C194.829279,282.168937 196.6491,282.243207 198.573154,281.853998 C205.040828,286.554944 211.46767,291.31483 217.946311,296 C224.289802,284.736229 230.647573,273.480793 237,262.222268 L234.58121,260.798343 L234.877853,256.759871 C234.91651,256.319238 234.654451,255.766532 234.375873,255.52229 C231.550983,252.982682 227.360069,249.4094 223.171845,247.048694 C221.077733,245.868341 218.998271,244.986779 216.942321,244.7377 C215.897227,244.611114 214.828822,244.677421 213.838963,244.994444 C213.612058,243.961142 213.144018,242.98425 212.515469,242.123301 C211.276672,240.426335 209.473186,239.023173 207.426881,237.758131 C203.334279,235.227826 198.233615,233.318468 194.671177,232.08565 C194.117058,231.887399 193.755136,232.048441 193.187919,232.412943 Z M192,235 C188.139785,242.581882 180.673411,254.753434 177.050848,261.179939 L174,263 L189.348109,236.563315 L192,235 Z M195.006443,235 C198.349085,236.202889 202.589529,237.867459 205.915308,239.94721 C207.745325,241.091602 209.233156,242.359652 210.090304,243.547361 C210.923816,244.702268 211.18148,245.629111 210.875924,246.729371 L196.779694,272 C195.882989,269.478117 193.749703,267.249088 191.998649,265.868117 C188.695251,263.293956 184.569954,261.49377 181,260.107911 L195.006443,235 Z M216.230771,248.030201 C217.661998,248.20764 219.472912,248.952977 221.357092,250.039926 C224.778119,252.013545 228.306309,255.004615 231,257.440602 L216.908255,283 C213.947746,280.4517 210.343305,277.607466 206.520112,275.906715 C203.854525,274.916702 201.467533,274.266718 199,274.629964 L213.227242,248.834181 C214.279835,247.984597 215.071483,247.946607 216.230771,248.030201 Z M233,260 L232.770646,263.357638 L218,289 L218.321097,285.228381 C223.413695,277.071777 228.164624,268.402911 233,260 Z M178.074951,263 C182.238953,264.917735 186.719527,266.561497 190.010335,269.069332 C191.651355,270.349882 192.895782,271.733355 193.550869,273.153907 C194.139233,275.071642 194.136978,276.507717 193.617674,278 C192.891663,277.064859 192.765256,276.293189 192.816044,275.161617 C186.549038,271.943469 180.272769,268.744596 174,265.53844 L178.074951,263 Z M205.501642,278.191514 C209.753796,280.386754 213.653211,283.404806 217,286.288642 L216.518034,292 C210.713074,287.624655 204.874407,283.298555 199.07541,278.914451 C198.073608,279.215688 196.955411,279.462378 196,279.372337 C197.185728,278.059603 198.735342,277.142372 200.131148,277.010614 C201.983453,276.908281 204.073965,277.564149 205.501642,278.191514 Z" id="Shape" fill="#0881A3" fill-rule="nonzero"></path>
                <path d="M287.187919,34.4129433 L283.902014,36.4204586 L281.665772,35.089929 C275.448609,46.1185375 269.213663,57.1366529 263,68.1672335 C270.010388,71.7594177 277.053778,75.2847741 284.084563,78.8351351 C284.519574,80.7702411 285.791329,82.3569938 287.347651,83.2937748 C288.829279,84.1689371 290.6491,84.2432069 292.573154,83.8539978 C299.040828,88.5549442 305.46767,93.3148302 311.946311,98 C318.289802,86.7362289 324.647573,75.4807926 331,64.222268 L328.58121,62.7983431 L328.877853,58.7598707 C328.91651,58.3192384 328.654451,57.7665317 328.375873,57.5222899 C325.550983,54.9826819 321.360069,51.4094 317.171845,49.0486942 C315.077733,47.8683413 312.998271,46.9867789 310.942321,46.7377 C309.897227,46.611114 308.828822,46.6774209 307.838963,46.994444 C307.612058,45.9611422 307.144018,44.9842497 306.515469,44.1233013 C305.276672,42.4263347 303.473186,41.0231726 301.426881,39.7581314 C297.334279,37.2278256 292.233615,35.3184685 288.671177,34.0856505 C288.117058,33.8873994 287.755136,34.0484412 287.187919,34.4129433 Z M286,37 C282.139785,44.581882 274.673411,56.7534341 271.050848,63.1799392 L268,65 L283.348109,38.5633145 L286,37 Z M289.006443,37 C292.349085,38.202889 296.589529,39.8674594 299.915308,41.9472097 C301.745325,43.0916018 303.233156,44.3596519 304.090304,45.5473614 C304.923816,46.7022681 305.18148,47.629111 304.875924,48.7293712 L290.779694,74 C289.882989,71.4781167 287.749703,69.2490882 285.998649,67.8681168 C282.695251,65.2939565 278.569954,63.4937696 275,62.1079111 L289.006443,37 Z M310.230771,50.0302008 C311.661998,50.2076404 313.472912,50.9529769 315.357092,52.039926 C318.778119,54.0135452 322.306309,57.0046152 325,59.4406023 L310.908255,85 C307.947746,82.4516998 304.343305,79.607466 300.520112,77.9067147 C297.854525,76.9167016 295.467533,76.266718 293,76.6299641 L307.227242,50.8341814 C308.279835,49.9845972 309.071483,49.9466067 310.230771,50.0302008 Z M327,62 L326.770646,65.3576377 L312,91 L312.321097,87.2283808 C317.413695,79.0717768 322.164624,70.4029107 327,62 Z M272.074951,65 C276.238953,66.9177346 280.719527,68.5614967 284.010335,71.0693318 C285.651355,72.3498816 286.895782,73.7333549 287.550869,75.1539073 C288.139233,77.0716419 288.136978,78.5077174 287.617674,80 C286.891663,79.0648588 286.765256,78.2931889 286.816044,77.1616174 C280.549038,73.9434692 274.272769,70.7445963 268,67.53844 L272.074951,65 Z M299.501642,80.1915142 C303.753796,82.3867543 307.653211,85.4048061 311,88.288642 L310.518034,94 C304.713074,89.6246546 298.874407,85.298555 293.07541,80.9144514 C292.073608,81.2156881 290.955411,81.4623779 290,81.3723373 C291.185728,80.0596031 292.735342,79.1423716 294.131148,79.0106142 C295.983453,78.9082813 298.073965,79.5641491 299.501642,80.1915142 Z" id="Shape" fill="#0881A3" fill-rule="nonzero"></path>
                <path d="M499.187919,185.412943 L495.902014,187.420459 L493.665772,186.089929 C487.448609,197.118537 481.213663,208.136653 475,219.167233 C482.010388,222.759418 489.053778,226.284774 496.084563,229.835135 C496.519574,231.770241 497.791329,233.356994 499.347651,234.293775 C500.829279,235.168937 502.6491,235.243207 504.573154,234.853998 C511.040828,239.554944 517.46767,244.31483 523.946311,249 C530.289802,237.736229 536.647573,226.480793 543,215.222268 L540.58121,213.798343 L540.877853,209.759871 C540.91651,209.319238 540.654451,208.766532 540.375873,208.52229 C537.550983,205.982682 533.360069,202.4094 529.171845,200.048694 C527.077733,198.868341 524.998271,197.986779 522.942321,197.7377 C521.897227,197.611114 520.828822,197.677421 519.838963,197.994444 C519.612058,196.961142 519.144018,195.98425 518.515469,195.123301 C517.276672,193.426335 515.473186,192.023173 513.426881,190.758131 C509.334279,188.227826 504.233615,186.318468 500.671177,185.08565 C500.117058,184.887399 499.755136,185.048441 499.187919,185.412943 Z M498,188 C494.139785,195.581882 486.673411,207.753434 483.050848,214.179939 L480,216 L495.348109,189.563315 L498,188 Z M501.006443,188 C504.349085,189.202889 508.589529,190.867459 511.915308,192.94721 C513.745325,194.091602 515.233156,195.359652 516.090304,196.547361 C516.923816,197.702268 517.18148,198.629111 516.875924,199.729371 L502.779694,225 C501.882989,222.478117 499.749703,220.249088 497.998649,218.868117 C494.695251,216.293956 490.569954,214.49377 487,213.107911 L501.006443,188 Z M522.230771,201.030201 C523.661998,201.20764 525.472912,201.952977 527.357092,203.039926 C530.778119,205.013545 534.306309,208.004615 537,210.440602 L522.908255,236 C519.947746,233.4517 516.343305,230.607466 512.520112,228.906715 C509.854525,227.916702 507.467533,227.266718 505,227.629964 L519.227242,201.834181 C520.279835,200.984597 521.071483,200.946607 522.230771,201.030201 Z M539,213 L538.770646,216.357638 L524,242 L524.321097,238.228381 C529.413695,230.071777 534.164624,221.402911 539,213 Z M484.074951,216 C488.238953,217.917735 492.719527,219.561497 496.010335,222.069332 C497.651355,223.349882 498.895782,224.733355 499.550869,226.153907 C500.139233,228.071642 500.136978,229.507717 499.617674,231 C498.891663,230.064859 498.765256,229.293189 498.816044,228.161617 C492.549038,224.943469 486.272769,221.744596 480,218.53844 L484.074951,216 Z M511.501642,231.191514 C515.753796,233.386754 519.653211,236.404806 523,239.288642 L522.518034,245 C516.713074,240.624655 510.874407,236.298555 505.07541,231.914451 C504.073608,232.215688 502.955411,232.462378 502,232.372337 C503.185728,231.059603 504.735342,230.142372 506.131148,230.010614 C507.983453,229.908281 510.073965,230.564149 511.501642,231.191514 Z" id="Shape" fill="#0881A3" fill-rule="nonzero"></path>
                <circle id="Oval" stroke="#FFD6A4" stroke-width="3" cx="343" cy="188" r="28"></circle>
                <circle id="Oval" stroke="#FFD6A4" stroke-width="3" cx="203.5" cy="262.5" r="46.5"></circle>
                <circle id="Oval" stroke="#FFD6A4" stroke-width="3" cx="297.5" cy="64.5" r="46.5"></circle>
                <circle id="Oval" stroke="#FFD6A4" stroke-width="3" cx="508.5" cy="216.5" r="46.5"></circle>
                <circle id="Oval" stroke="#FFD6A4" stroke-width="3" cx="716.5" cy="46.5" r="46.5"></circle>
                <path d="M707.187919,14.4129433 L703.902014,16.4204586 L701.665772,15.089929 C695.448609,26.1185375 689.213663,37.1366529 683,48.1672335 C690.010388,51.7594177 697.053778,55.2847741 704.084563,58.8351351 C704.519574,60.7702411 705.791329,62.3569938 707.347651,63.2937748 C708.829279,64.1689371 710.6491,64.2432069 712.573154,63.8539978 C719.040828,68.5549442 725.46767,73.3148302 731.946311,78 C738.289802,66.7362289 744.647573,55.4807926 751,44.222268 L748.58121,42.7983431 L748.877853,38.7598707 C748.91651,38.3192384 748.654451,37.7665317 748.375873,37.5222899 C745.550983,34.9826819 741.360069,31.4094 737.171845,29.0486942 C735.077733,27.8683413 732.998271,26.9867789 730.942321,26.7377 C729.897227,26.611114 728.828822,26.6774209 727.838963,26.994444 C727.612058,25.9611422 727.144018,24.9842497 726.515469,24.1233013 C725.276672,22.4263347 723.473186,21.0231726 721.426881,19.7581314 C717.334279,17.2278256 712.233615,15.3184685 708.671177,14.0856505 C708.117058,13.8873994 707.755136,14.0484412 707.187919,14.4129433 Z M706,17 C702.139785,24.581882 694.673411,36.7534341 691.050848,43.1799392 L688,45 L703.348109,18.5633145 L706,17 Z M709.006443,17 C712.349085,18.202889 716.589529,19.8674594 719.915308,21.9472097 C721.745325,23.0916018 723.233156,24.3596519 724.090304,25.5473614 C724.923816,26.7022681 725.18148,27.629111 724.875924,28.7293712 L710.779694,54 C709.882989,51.4781167 707.749703,49.2490882 705.998649,47.8681168 C702.695251,45.2939565 698.569954,43.4937696 695,42.1079111 L709.006443,17 Z M730.230771,30.0302008 C731.661998,30.2076404 733.472912,30.9529769 735.357092,32.039926 C738.778119,34.0135452 742.306309,37.0046152 745,39.4406023 L730.908255,65 C727.947746,62.4516998 724.343305,59.607466 720.520112,57.9067147 C717.854525,56.9167016 715.467533,56.266718 713,56.6299641 L727.227242,30.8341814 C728.279835,29.9845972 729.071483,29.9466067 730.230771,30.0302008 Z M747,42 L746.770646,45.3576377 L732,71 L732.321097,67.2283808 C737.413695,59.0717768 742.164624,50.4029107 747,42 Z M692.074951,45 C696.238953,46.9177346 700.719527,48.5614967 704.010335,51.0693318 C705.651355,52.3498816 706.895782,53.7333549 707.550869,55.1539073 C708.139233,57.0716419 708.136978,58.5077174 707.617674,60 C706.891663,59.0648588 706.765256,58.2931889 706.816044,57.1616174 C700.549038,53.9434692 694.272769,50.7445963 688,47.53844 L692.074951,45 Z M719.501642,60.1915142 C723.753796,62.3867543 727.653211,65.4048061 731,68.288642 L730.518034,74 C724.713074,69.6246546 718.874407,65.298555 713.07541,60.9144514 C712.073608,61.2156881 710.955411,61.4623779 710,61.3723373 C711.185728,60.0596031 712.735342,59.1423716 714.131148,59.0106142 C715.983453,58.9082813 718.073965,59.5641491 719.501642,60.1915142 Z" id="Shape" fill="#0881A3" fill-rule="nonzero"></path>
                <path d="M337.228188,170.245185 L335.295302,171.437147 L333.979866,170.647145 C330.322711,177.195382 326.655096,183.737388 323,190.286795 C327.123758,192.419654 331.266928,194.512835 335.402684,196.620861 C335.658573,197.769831 336.406664,198.711965 337.322148,199.268179 C338.193693,199.787806 339.264177,199.831904 340.395973,199.600811 C344.200487,202.391998 347.980983,205.21818 351.791948,208 C355.523413,201.312136 359.263278,194.629221 363,187.944472 L361.577183,187.099016 L361.751678,184.701173 C361.774417,184.439548 361.620265,184.111378 361.456396,183.96636 C359.794696,182.458467 357.329452,180.336831 354.865791,178.935162 C353.633961,178.234328 352.410748,177.7109 351.201365,177.563009 C350.586604,177.487849 349.95813,177.527219 349.375861,177.715451 C349.242387,177.101928 348.96707,176.521898 348.597335,176.01071 C347.86863,175.003136 346.807757,174.170009 345.604048,173.41889 C343.196635,171.916521 340.196244,170.782841 338.100693,170.050855 C337.77474,169.933143 337.561845,170.028762 337.228188,170.245185 Z M337,172 C334.64098,176.603286 330.078196,183.993156 327.864407,187.894963 L326,189 L335.3794,172.949155 L337,172 Z M338.403866,172 C340.409451,172.715231 342.953717,173.704976 344.949185,174.941584 C346.047195,175.622034 346.939894,176.376009 347.454183,177.082215 C347.95429,177.768916 348.108888,178.320012 347.925555,178.974221 L339.467817,194 C338.929793,192.500502 337.649822,191.175134 336.599189,190.354015 C334.617151,188.823434 332.141972,187.753052 330,186.929028 L338.403866,172 Z M351.23077,179.01812 C352.080561,179.124584 353.155791,179.571786 354.274523,180.223956 C356.305758,181.408127 358.400621,183.202769 360,184.664361 L351.633027,200 C349.875224,198.47102 347.735087,196.76448 345.465067,195.744029 C343.882374,195.150021 342.465098,194.760031 341,194.977978 L349.447425,179.500509 C350.072402,178.990758 350.542443,178.967964 351.23077,179.01812 Z M361,187 L360.862387,188.96827 L352,204 L352.192658,201.789051 C355.248217,197.007593 358.098774,191.925844 361,187 Z M328.444971,188 C330.943372,189.150641 333.631716,190.136898 335.606201,191.641599 C336.590813,192.409929 337.337469,193.240013 337.730522,194.092344 C338.08354,195.242985 338.082187,196.10463 337.770604,197 C337.334998,196.438915 337.259154,195.975913 337.289626,195.29697 C333.529423,193.366082 329.763661,191.446758 326,189.523064 L328.444971,188 Z M344.429509,197.714908 C346.859312,199.032053 349.087549,200.842884 351,202.573185 L350.724591,206 C347.407471,203.374793 344.07109,200.779133 340.757377,198.148671 C340.184919,198.329413 339.545949,198.477427 339,198.423402 C339.677559,197.635762 340.563053,197.085423 341.360656,197.006369 C342.419116,196.944969 343.613695,197.338489 344.429509,197.714908 Z" id="Shape" fill="#0881A3" fill-rule="nonzero"></path>
                <circle id="Oval" stroke="#FFD6A4" stroke-width="3" cx="180" cy="144" r="28"></circle>
                <path d="M174.228188,126.245185 L172.295302,127.437147 L170.979866,126.647145 C167.322711,133.195382 163.655096,139.737388 160,146.286795 C164.123758,148.419654 168.266928,150.512835 172.402684,152.620861 C172.658573,153.769831 173.406664,154.711965 174.322148,155.268179 C175.193693,155.787806 176.264177,155.831904 177.395973,155.600811 C181.200487,158.391998 184.980983,161.21818 188.791948,164 C192.523413,157.312136 196.263278,150.629221 200,143.944472 L198.577183,143.099016 L198.751678,140.701173 C198.774417,140.439548 198.620265,140.111378 198.456396,139.96636 C196.794696,138.458467 194.329452,136.336831 191.865791,134.935162 C190.633961,134.234328 189.410748,133.7109 188.201365,133.563009 C187.586604,133.487849 186.95813,133.527219 186.375861,133.715451 C186.242387,133.101928 185.96707,132.521898 185.597335,132.01071 C184.86863,131.003136 183.807757,130.170009 182.604048,129.41889 C180.196635,127.916521 177.196244,126.782841 175.100693,126.050855 C174.77474,125.933143 174.561845,126.028762 174.228188,126.245185 Z M174,128 C171.64098,132.603286 167.078196,139.993156 164.864407,143.894963 L163,145 L172.3794,128.949155 L174,128 Z M175.403866,128 C177.409451,128.715231 179.953717,129.704976 181.949185,130.941584 C183.047195,131.622034 183.939894,132.376009 184.454183,133.082215 C184.95429,133.768916 185.108888,134.320012 184.925555,134.974221 L176.467817,150 C175.929793,148.500502 174.649822,147.175134 173.599189,146.354015 C171.617151,144.823434 169.141972,143.753052 167,142.929028 L175.403866,128 Z M188.23077,135.01812 C189.080561,135.124584 190.155791,135.571786 191.274523,136.223956 C193.305758,137.408127 195.400621,139.202769 197,140.664361 L188.633027,156 C186.875224,154.47102 184.735087,152.76448 182.465067,151.744029 C180.882374,151.150021 179.465098,150.760031 178,150.977978 L186.447425,135.500509 C187.072402,134.990758 187.542443,134.967964 188.23077,135.01812 Z M198,143 L197.862387,144.96827 L189,160 L189.192658,157.789051 C192.248217,153.007593 195.098774,147.925844 198,143 Z M165.444971,144 C167.943372,145.150641 170.631716,146.136898 172.606201,147.641599 C173.590813,148.409929 174.337469,149.240013 174.730522,150.092344 C175.08354,151.242985 175.082187,152.10463 174.770604,153 C174.334998,152.438915 174.259154,151.975913 174.289626,151.29697 C170.529423,149.366082 166.763661,147.446758 163,145.523064 L165.444971,144 Z M181.429509,153.714908 C183.859312,155.032053 186.087549,156.842884 188,158.573185 L187.724591,162 C184.407471,159.374793 181.07109,156.779133 177.757377,154.148671 C177.184919,154.329413 176.545949,154.477427 176,154.423402 C176.677559,153.635762 177.563053,153.085423 178.360656,153.006369 C179.419116,152.944969 180.613695,153.338489 181.429509,153.714908 Z" id="Shape" fill="#0881A3" fill-rule="nonzero"></path>
                <circle id="Oval" stroke="#FFD6A4" stroke-width="3" cx="450" cy="50" r="28"></circle>
                <path d="M444.228188,32.2451851 L442.295302,33.4371473 L440.979866,32.6471454 C437.322711,39.1953816 433.655096,45.7373877 430,52.2867949 C434.123758,54.4196543 438.266928,56.5128346 442.402684,58.6208615 C442.658573,59.7698307 443.406664,60.7119651 444.322148,61.2681788 C445.193693,61.7878064 446.264177,61.8319041 447.395973,61.6008112 C451.200487,64.3919981 454.980983,67.2181805 458.791948,70 C462.523413,63.3121359 466.263278,56.6292206 470,49.9444716 L468.577183,49.0990162 L468.751678,46.7011732 C468.774417,46.4395478 468.620265,46.1113782 468.456396,45.9663597 C466.794696,44.4584674 464.329452,42.3368312 461.865791,40.9351622 C460.633961,40.2343276 459.410748,39.7109 458.201365,39.5630094 C457.586604,39.4878489 456.95813,39.5272187 456.375861,39.7154511 C456.242387,39.1019282 455.96707,38.5218983 455.597335,38.0107101 C454.86863,37.0031362 453.807757,36.1700087 452.604048,35.4188905 C450.196635,33.9165215 447.196244,32.7828406 445.100693,32.050855 C444.77474,31.9331434 444.561845,32.028762 444.228188,32.2451851 Z M444,34 C441.64098,38.6032855 437.078196,45.9931564 434.864407,49.8949631 L433,51 L442.3794,34.9491552 L444,34 Z M445.403866,34 C447.409451,34.7152313 449.953717,35.7049758 451.949185,36.9415841 C453.047195,37.6220335 453.939894,38.3760093 454.454183,39.0822149 C454.95429,39.7689162 455.108888,40.3200119 454.925555,40.9742207 L446.467817,56 C445.929793,54.5005018 444.649822,53.1751335 443.599189,52.3540154 C441.617151,50.8234336 439.141972,49.7530522 437,48.9290282 L445.403866,34 Z M458.23077,41.0181205 C459.080561,41.1245842 460.155791,41.5717861 461.274523,42.2239556 C463.305758,43.4081271 465.400621,45.2027691 467,46.6643614 L458.633027,62 C456.875224,60.4710199 454.735087,58.7644796 452.465067,57.7440288 C450.882374,57.1500209 449.465098,56.7600308 448,56.9779784 L456.447425,41.5005088 C457.072402,40.9907583 457.542443,40.967964 458.23077,41.0181205 Z M468,49 L467.862387,50.9682704 L459,66 L459.192658,63.7890508 C462.248217,59.0075933 465.098774,53.9258442 468,49 Z M435.444971,50 C437.943372,51.1506408 440.631716,52.136898 442.606201,53.6415991 C443.590813,54.4099289 444.337469,55.2400129 444.730522,56.0923444 C445.08354,57.2429852 445.082187,58.1046305 444.770604,59 C444.334998,58.4389153 444.259154,57.9759134 444.289626,57.2969704 C440.529423,55.3660815 436.763661,53.4467578 433,51.523064 L435.444971,50 Z M451.429509,59.7149085 C453.859312,61.0320526 456.087549,62.8428836 458,64.5731852 L457.724591,68 C454.407471,65.3747928 451.07109,62.779133 447.757377,60.1486709 C447.184919,60.3294129 446.545949,60.4774268 446,60.4234024 C446.677559,59.6357618 447.563053,59.085423 448.360656,59.0063685 C449.419116,58.9449688 450.613695,59.3384894 451.429509,59.7149085 Z" id="Shape" fill="#0881A3" fill-rule="nonzero"></path>
                <circle id="Oval" stroke="#FFD6A4" stroke-width="3" cx="28" cy="170" r="28"></circle>
                <path d="M22.2281878,152.245185 L20.2953022,153.437147 L18.9798657,152.647145 C15.3227113,159.195382 11.6550961,165.737388 8,172.286795 C12.1237578,174.419654 16.2669283,176.512835 20.4026843,178.620861 C20.658573,179.769831 21.4066643,180.711965 22.3221478,181.268179 C23.1936935,181.787806 24.2641765,181.831904 25.395973,181.600811 C29.200487,184.391998 32.9809826,187.21818 36.7919478,190 C40.523413,183.312136 44.2632783,176.629221 48,169.944472 L46.5771826,169.099016 L46.7516783,166.701173 C46.7744174,166.439548 46.6202652,166.111378 46.4563957,165.96636 C44.7946957,164.458467 42.3294522,162.336831 39.8657913,160.935162 C38.6339609,160.234328 37.4107478,159.7109 36.2013652,159.563009 C35.5866043,159.487849 34.9581304,159.527219 34.3758609,159.715451 C34.242387,159.101928 33.9670696,158.521898 33.5973348,158.01071 C32.8686304,157.003136 31.8077565,156.170009 30.6040478,155.41889 C28.1966348,153.916521 25.1962443,152.782841 23.1006926,152.050855 C22.77474,151.933143 22.5618448,152.028762 22.2281878,152.245185 Z M22,154 C19.64098,158.603286 15.0781959,165.993156 12.8644068,169.894963 L11,171 L20.3794001,154.949155 L22,154 Z M23.4038658,154 C25.4094509,154.715231 27.9537172,155.704976 29.9491851,156.941584 C31.0471948,157.622034 31.9398936,158.376009 32.4541827,159.082215 C32.9542896,159.768916 33.1088878,160.320012 32.9255547,160.974221 L24.4678166,176 C23.9297932,174.500502 22.6498219,173.175134 21.5991894,172.354015 C19.6171507,170.823434 17.1419721,169.753052 15,168.929028 L23.4038658,154 Z M36.2307702,161.01812 C37.0805611,161.124584 38.1557913,161.571786 39.2745233,162.223956 C41.3057579,163.408127 43.4006208,165.202769 45,166.664361 L36.6330266,182 C34.875224,180.47102 32.7350873,178.76448 30.4650666,177.744029 C28.8823741,177.150021 27.4650976,176.760031 26,176.977978 L34.4474251,161.500509 C35.072402,160.990758 35.5424431,160.967964 36.2307702,161.01812 Z M46,169 L45.8623874,170.96827 L37,186 L37.1926585,183.789051 C40.248217,179.007593 43.0987742,173.925844 46,169 Z M13.4449708,170 C15.9433716,171.150641 18.6317165,172.136898 20.6062013,173.641599 C21.5908129,174.409929 22.3374691,175.240013 22.7305215,176.092344 C23.0835398,177.242985 23.082187,178.10463 22.7706042,179 C22.334998,178.438915 22.2591535,177.975913 22.2896262,177.29697 C18.5294227,175.366082 14.7636612,173.446758 11,171.523064 L13.4449708,170 Z M29.4295094,179.714908 C31.859312,181.032053 34.0875493,182.842884 36,184.573185 L35.7245911,188 C32.4074706,185.374793 29.0710895,182.779133 25.7573773,180.148671 C25.1849186,180.329413 24.5459492,180.477427 24,180.423402 C24.6775586,179.635762 25.5630528,179.085423 26.3606559,179.006369 C27.4191159,178.944969 28.6136945,179.338489 29.4295094,179.714908 Z" id="Shape" fill="#0881A3" fill-rule="nonzero"></path>
                <circle id="Oval" stroke="#FFD6A4" stroke-width="3" cx="118" cy="37" r="28"></circle>
                <path d="M112.228188,19.2451851 L110.295302,20.4371473 L108.979866,19.6471454 C105.322711,26.1953816 101.655096,32.7373877 98,39.2867949 C102.123758,41.4196543 106.266928,43.5128346 110.402684,45.6208615 C110.658573,46.7698307 111.406664,47.7119651 112.322148,48.2681788 C113.193693,48.7878064 114.264177,48.8319041 115.395973,48.6008112 C119.200487,51.3919981 122.980983,54.2181805 126.791948,57 C130.523413,50.3121359 134.263278,43.6292206 138,36.9444716 L136.577183,36.0990162 L136.751678,33.7011732 C136.774417,33.4395478 136.620265,33.1113782 136.456396,32.9663597 C134.794696,31.4584674 132.329452,29.3368312 129.865791,27.9351622 C128.633961,27.2343276 127.410748,26.7109 126.201365,26.5630094 C125.586604,26.4878489 124.95813,26.5272187 124.375861,26.7154511 C124.242387,26.1019282 123.96707,25.5218983 123.597335,25.0107101 C122.86863,24.0031362 121.807757,23.1700087 120.604048,22.4188905 C118.196635,20.9165215 115.196244,19.7828406 113.100693,19.050855 C112.77474,18.9331434 112.561845,19.028762 112.228188,19.2451851 Z M112,21 C109.64098,25.6032855 105.078196,32.9931564 102.864407,36.8949631 L101,38 L110.3794,21.9491552 L112,21 Z M113.403866,21 C115.409451,21.7152313 117.953717,22.7049758 119.949185,23.9415841 C121.047195,24.6220335 121.939894,25.3760093 122.454183,26.0822149 C122.95429,26.7689162 123.108888,27.3200119 122.925555,27.9742207 L114.467817,43 C113.929793,41.5005018 112.649822,40.1751335 111.599189,39.3540154 C109.617151,37.8234336 107.141972,36.7530522 105,35.9290282 L113.403866,21 Z M126.23077,28.0181205 C127.080561,28.1245842 128.155791,28.5717861 129.274523,29.2239556 C131.305758,30.4081271 133.400621,32.2027691 135,33.6643614 L126.633027,49 C124.875224,47.4710199 122.735087,45.7644796 120.465067,44.7440288 C118.882374,44.1500209 117.465098,43.7600308 116,43.9779784 L124.447425,28.5005088 C125.072402,27.9907583 125.542443,27.967964 126.23077,28.0181205 Z M136,36 L135.862387,37.9682704 L127,53 L127.192658,50.7890508 C130.248217,46.0075933 133.098774,40.9258442 136,36 Z M103.444971,37 C105.943372,38.1506408 108.631716,39.136898 110.606201,40.6415991 C111.590813,41.4099289 112.337469,42.2400129 112.730522,43.0923444 C113.08354,44.2429852 113.082187,45.1046305 112.770604,46 C112.334998,45.4389153 112.259154,44.9759134 112.289626,44.2969704 C108.529423,42.3660815 104.763661,40.4467578 101,38.523064 L103.444971,37 Z M119.429509,46.7149085 C121.859312,48.0320526 124.087549,49.8428836 126,51.5731852 L125.724591,55 C122.407471,52.3747928 119.07109,49.779133 115.757377,47.1486709 C115.184919,47.3294129 114.545949,47.4774268 114,47.4234024 C114.677559,46.6357618 115.563053,46.085423 116.360656,46.0063685 C117.419116,45.9449688 118.613695,46.3384894 119.429509,46.7149085 Z" id="Shape" fill="#0881A3" fill-rule="nonzero"></path>
                <path d="M41,145 L99.5,60.5" id="Line" stroke="#FFD6A4" stroke-width="2" stroke-linecap="square"></path>
                <path d="M252,54 L147,38" id="Line" stroke="#FFD6A4" stroke-width="2" stroke-linecap="square"></path>
                <path d="M422,52 L344,62" id="Line" stroke="#FFD6A4" stroke-width="2" stroke-linecap="square"></path>
                <path d="M672,35 L478,49" id="Line" stroke="#FFD6A4" stroke-width="2" stroke-linecap="square"></path>
                <path d="M161,243 L48,190" id="Line" stroke="#FFD6A4" stroke-width="2" stroke-linecap="square"></path>
                <path d="M320,207 L249,249" id="Line" stroke="#FFD6A4" stroke-width="2" stroke-linecap="square"></path>
                <path d="M463,201 L371,189" id="Line" stroke="#FFD6A4" stroke-width="2" stroke-linecap="square"></path>
                <path d="M696,90 L552,201" id="Line" stroke="#FFD6A4" stroke-width="2" stroke-linecap="square"></path>
                <path d="M259,92 L202,128" id="Line" stroke="#FFD6A4" stroke-width="2" stroke-linecap="square"></path>
                <path d="M130,63 L166,118" id="Line" stroke="#FFD6A4" stroke-width="2" stroke-linecap="square"></path>
                <path d="M152,152 L56,171" id="Line" stroke="#FFD6A4" stroke-width="2" stroke-linecap="square"></path>
                <path d="M187,173 L193,216" id="Line" stroke="#FFD6A4" stroke-width="2" stroke-linecap="square"></path>
                <path d="M287,112 L228,223" id="Line" stroke="#FFD6A4" stroke-width="2" stroke-linecap="square"></path>
                <path d="M320,107 L338,159" id="Line" stroke="#FFD6A4" stroke-width="2" stroke-linecap="square"></path>
                <path d="M437,76 L364,168" id="Line" stroke="#FFD6A4" stroke-width="2" stroke-linecap="square"></path>
                <path d="M467,73 L501,169" id="Line" stroke="#FFD6A4" stroke-width="2" stroke-linecap="square"></path>
            </g>
        </g>
    </g>
</svg>