<?xml version="1.0" encoding="UTF-8"?>
<svg width="1362px" height="294px" viewBox="0 0 1362 294" version="1.1" xmlns="http://www.w3.org/2000/svg" xmlns:xlink="http://www.w3.org/1999/xlink">
    <!-- Generator: Sketch 49.3 (51167) - http://www.bohemiancoding.com/sketch -->
    <title>v1_long</title>
    <desc>Created with Sketch.</desc>
    <defs></defs>
    <g id="v1_long" stroke="none" stroke-width="1" fill="none" fill-rule="evenodd">
        <text id="bookchain" font-family="TsukuARdGothic-Regular, Tsukushi A Round Gothic" font-size="200" font-weight="normal">
            <tspan x="412" y="227" fill="#0881A3">book</tspan>
            <tspan x="866.4" y="227" font-family="TsukuARdGothic-Bold, Tsukushi A Round Gothic" font-weight="bold" fill="#FFD6A4">chain</tspan>
        </text>
        <g id="bookiconsvg" fill-rule="nonzero">
            <path d="M332.627255,12.3731922 C332.627255,21.9220687 332.627255,31.4709453 332.627255,41.3560499 C340.101268,41.3560499 347.373281,41.3560499 354.914628,41.3560499 C354.914628,45.9287514 354.914628,50.1652248 354.914628,54.8724174 C362.388641,54.8724174 369.59332,54.8724174 377,54.8724174 C377,134.760202 377,214.110021 377,293.863314 C375.585997,293.863314 374.239328,293.863314 372.959993,293.863314 C313.235221,293.863314 253.577782,293.728823 193.853009,293.997805 C181.867655,294.065051 170.286301,292.585647 158.704947,289.761332 C107.127523,277.051912 55.5500982,264.611474 3.90534024,252.171036 C1.14466869,251.49858 0,250.557141 0,247.396598 C0.134666905,168.18127 0.0673334524,88.8986959 0.0673334524,9.68336778 C0.0673334524,8.60743803 0.0673334524,7.46426266 0.0673334524,5.78312242 C7.47401322,7.53150827 14.6113592,9.21264851 22.1527058,10.9610344 C22.1527058,7.19528023 22.1527058,3.83299975 22.1527058,0 C33.0607251,2.89156121 43.5647437,5.64863121 54.0687623,8.4057012 C94.3341668,19.0305075 134.666905,29.6553138 174.932309,40.3473658 C177.08698,40.9525762 178.702983,40.5491026 180.453652,39.3386816 C205.165029,22.1238056 232.502411,11.5662448 262.398464,7.66599949 C286.032506,4.57270145 309.32988,6.3210873 332.627255,12.3731922 Z M174.393642,266.35986 C174.393642,193.532864 174.393642,121.109343 174.393642,48.4840845 C126.452224,35.8419099 78.578139,23.2669809 30.4347205,10.5575607 C30.4347205,83.4518015 30.4347205,155.942569 30.4347205,228.567827 C78.3088051,241.142756 126.18289,253.717685 174.393642,266.35986 Z M324.547241,236.570055 C324.547241,234.888914 324.547241,233.544002 324.547241,232.19909 C324.547241,173.291936 324.547241,114.317536 324.547241,55.4103823 C324.547241,44.1131199 324.547241,32.7486119 324.547241,21.4513495 C324.547241,19.7029636 324.34524,18.5597882 322.257903,18.1563146 C304.683872,14.5250517 286.975174,13.2473851 269.064476,14.9957709 C238.562422,17.9545778 210.686373,28.1759104 185.368994,45.5252777 C183.348991,46.9374355 182.406323,48.2823477 182.406323,50.9049265 C182.473656,120.84036 182.473656,190.708549 182.473656,260.643983 C182.473656,261.719913 182.540989,262.728597 182.675656,264.342491 C203.751027,250.288159 226.173067,240.739282 250.547776,235.964844 C275.124487,231.12316 299.56653,231.459388 324.547241,236.570055 Z M193.853009,267.503035 C244.824433,267.503035 295.728523,267.503035 346.76728,267.503035 C346.76728,194.743285 346.76728,122.185273 346.76728,49.5600143 C341.986605,49.5600143 337.475263,49.5600143 332.694588,49.5600143 C332.694588,115.393466 332.694588,181.025181 332.694588,246.993124 C283.339168,234.350949 237.081086,240.873774 193.853009,267.503035 Z M162.677621,271.874 C161.734953,271.605017 160.724951,271.268789 159.714949,270.999807 C115.274871,259.299071 70.9021254,247.598335 26.4620468,235.964844 C23.2300411,235.157897 22.0853724,234.014721 22.0853724,230.450704 C22.2200393,161.658445 22.2200393,92.7989412 22.2200393,24.0066826 C22.2200393,22.9979985 22.4220396,21.9220687 22.1527058,20.9806302 C21.9507055,20.2409285 21.4120379,19.2322443 20.8060368,19.0977531 C16.6986962,18.0218234 12.5913556,17.0803848 8.28201465,16.0717007 C8.21468119,17.2821217 8.14734774,18.1563146 8.14734774,19.0305075 C8.14734774,93.3369061 8.14734774,167.643305 8.08001429,241.949703 C8.08001429,244.3033 8.75334881,245.177493 11.1100196,245.715457 C48.8840864,254.793615 86.6581532,263.939018 124.43222,273.084421 C135.609573,275.774245 146.786926,278.464069 157.762279,281.153894 C159.445615,277.858859 160.994285,274.900052 162.677621,271.874 Z M355.049295,275.975982 C301.047866,275.975982 247.652438,275.975982 194.122343,275.975982 C195.199679,279.472753 196.142347,282.566052 197.085015,285.592104 C254.453117,285.592104 311.753885,285.592104 368.919986,285.592104 C368.919986,211.285705 368.919986,137.315535 368.919986,63.2781186 C364.273977,63.2781186 359.82997,63.2781186 355.049295,63.2781186 C355.049295,134.087746 355.049295,204.762881 355.049295,275.975982 Z M188.062333,286.533542 C187.792999,279.472753 184.022325,276.446701 176.076978,275.908736 C170.420968,275.505262 167.458296,277.589876 166.313627,283.776472 C173.518307,284.650665 180.722986,285.592104 188.062333,286.533542 Z" id="Shape" fill="#0881A3"></path>
            <path d="M174,266 C125.775491,253.348055 77.9550982,240.763407 30,228.178759 C30,155.430074 30,82.9505783 30,10 C78.1571562,22.7192429 126.044902,35.3038906 174,47.955836 C174,120.704522 174,193.116719 174,266 Z" id="Shape" fill="#FFFFFF"></path>
            <path d="M325,237.130007 C300.044055,232.001389 275.558977,231.66398 251.073899,236.522671 C226.723354,241.31388 204.323543,250.828817 183.269067,265 C183.2018,263.380436 183.067267,262.368209 183.067267,261.2885 C183.067267,191.107405 183.067267,120.993791 183,50.8126958 C183,48.1809047 183.941734,46.8312683 185.959735,45.41415 C211.184747,28.0038398 239.100426,17.7466028 269.572241,14.7774026 C287.465182,13.0228753 305.156324,14.3050299 322.712932,17.9490483 C324.7982,18.3539392 325,19.5011302 325,21.2556576 C324.932733,32.5926037 325,43.9970317 325,55.3339779 C325,114.448054 325,173.629613 325,232.743689 C325,234.093325 325,235.442962 325,237.130007 Z" id="Shape" fill="#FFD6A4"></path>
            <path d="M194,267 C237.252312,240.43104 283.536328,233.839247 332.919419,246.484727 C332.919419,180.499537 332.919419,114.850663 332.919419,49 C337.702774,49 342.284016,49 347,49 C347,121.711509 347,194.221228 347,267 C295.932629,267 244.932629,267 194,267 Z" id="Shape" fill="#FFFFFF"></path>
            <path d="M162,271.790208 C160.390244,274.882547 158.847561,277.840436 157.103659,281 C146.170732,278.378234 135.036585,275.689244 123.902439,272.933029 C86.2743902,263.790462 48.6463415,254.647894 11.0182927,245.572552 C8.67073171,245.034754 8,244.160832 8,241.807965 C8.06707317,167.524607 8.06707317,93.2412481 8.06707317,18.9578894 C8.06707317,18.0839675 8.13414634,17.2100457 8.20121951,16 C12.4939024,17.0083714 16.5853659,17.949518 20.6768293,19.0251142 C21.2804878,19.1595637 21.8841463,20.2351598 22.0182927,20.9074074 C22.2195122,21.848554 22.0853659,22.9241502 22.0853659,23.9325216 C22.0853659,92.70345 22.152439,161.541603 21.9512195,230.312532 C21.9512195,233.875444 23.0914634,235.018265 26.3109756,235.824962 C70.5792683,247.38762 114.780488,259.151953 159.04878,270.849061 C160.054878,271.11796 161.060976,271.454084 162,271.790208 Z" id="Shape" fill="#FDE9DF"></path>
            <path d="M355.113251,275.397459 C355.113251,204.284936 355.113251,133.709619 355.113251,63 C359.899461,63 364.281202,63 369,63 C369,136.932849 369,210.865699 369,285 C311.76772,285 254.400616,285 196.966102,285 C196.022342,281.978221 195.078582,278.889292 194,275.397459 C247.524653,275.397459 301.049307,275.397459 355.113251,275.397459 Z" id="Shape" fill="#FDE9DF"></path>
            <path d="M188,287 C180.598765,286.035695 173.333333,285.07139 166,284.107085 C167.154321,277.839103 170.141975,275.634977 175.845679,276.048251 C183.993827,276.668161 187.728395,279.767713 188,287 Z" id="Shape" fill="#FFFFFF"></path>
        </g>
    </g>
</svg>